<?xml version="1.0" encoding="UTF-8" standalone="no"?>
<!-- Created with Inkscape (http://www.inkscape.org/) -->

<svg
   width="297mm"
   height="210mm"
   viewBox="0 0 297 210"
   version="1.1"
   id="svg1019"
   inkscape:version="1.2-beta (1b65182ce9, 2022-04-05)"
   sodipodi:docname="VoidStarSecurity_logo_2020-11-19.svg"
   inkscape:export-filename="VoidStarSecurity_logo_2020-11-19.png"
   inkscape:export-xdpi="96"
   inkscape:export-ydpi="96"
   xmlns:inkscape="http://www.inkscape.org/namespaces/inkscape"
   xmlns:sodipodi="http://sodipodi.sourceforge.net/DTD/sodipodi-0.dtd"
   xmlns="http://www.w3.org/2000/svg"
   xmlns:svg="http://www.w3.org/2000/svg"
   xmlns:rdf="http://www.w3.org/1999/02/22-rdf-syntax-ns#"
   xmlns:cc="http://creativecommons.org/ns#"
   xmlns:dc="http://purl.org/dc/elements/1.1/">
  <defs
     id="defs1013" />
  <sodipodi:namedview
     id="base"
     pagecolor="#ffffff"
     bordercolor="#666666"
     borderopacity="1.0"
     inkscape:pageopacity="1"
     inkscape:pageshadow="2"
     inkscape:zoom="1.4"
     inkscape:cx="471.42857"
     inkscape:cy="399.28571"
     inkscape:document-units="mm"
     inkscape:current-layer="g895"
     showgrid="true"
     inkscape:window-width="2560"
     inkscape:window-height="1377"
     inkscape:window-x="2552"
     inkscape:window-y="1072"
     inkscape:window-maximized="1"
     inkscape:pagecheckerboard="0"
     inkscape:deskcolor="#d1d1d1">
    <inkscape:grid
       type="xygrid"
       id="grid875" />
  </sodipodi:namedview>
  <metadata
     id="metadata1016">
    <rdf:RDF>
      <cc:Work
         rdf:about="">
        <dc:format>image/svg+xml</dc:format>
        <dc:type
           rdf:resource="http://purl.org/dc/dcmitype/StillImage" />
        <dc:title />
      </cc:Work>
    </rdf:RDF>
  </metadata>
  <g
     inkscape:label="Layer 1"
     inkscape:groupmode="layer"
     id="layer1"
     transform="translate(0,-87)">
    <g
       id="g895"
       transform="matrix(1.1703199,0,0,1.2375599,-26.572072,-43.542651)">
      <path
         inkscape:connector-curvature="0"
         id="path1353"
         style="font-style:normal;font-variant:normal;font-weight:bold;font-stretch:normal;font-size:50.8px;line-height:1.25;font-family:DINPro;-inkscape-font-specification:'DINPro Bold';letter-spacing:-3.98462px;word-spacing:-2.69875px;fill:#1a1a1a;fill-opacity:1;stroke:none;stroke-width:0.264583"
         d="m 164.96511,181.79125 h -3.6068 c -2.50613,0 -4.4196,-0.74507 -5.7404,-2.2352 -1.28693,-1.49013 -1.9304,-3.26813 -1.9304,-5.334 v -13.1064 h -2.794 v -5.81585 h 2.794 v -7.03655 h 6.604 v 7.03655 h 7.8486 l -0.32191,5.81585 h -7.52669 v 12.7 c 0,1.59173 0.762,2.3876 2.286,2.3876 h 2.3876 z"
         sodipodi:nodetypes="cscsccccccccccsscc" />
      <path
         style="font-style:normal;font-variant:normal;font-weight:bold;font-stretch:normal;font-size:50.8px;line-height:1.25;font-family:DINPro;-inkscape-font-specification:'DINPro Bold';letter-spacing:-3.98462px;word-spacing:-2.69875px;fill:#1a1a1a;fill-opacity:1;stroke:none;stroke-width:0.264583"
         d="m 62.854816,149.53793 0.0083,0.003 -9.296587,30.46481 0.589626,1.78593 h 5.282883 L 72.962069,142.7203 c 1.678305,-5.24439 -1.495794,-6.04341 -6.67965,-5.00127 z"
         id="path1213"
         inkscape:connector-curvature="0"
         sodipodi:nodetypes="cccccccc" />
      <path
         style="font-style:normal;font-variant:normal;font-weight:bold;font-stretch:normal;font-size:50.8px;line-height:1.25;font-family:DINPro;-inkscape-font-specification:'DINPro Bold';letter-spacing:-3.98462px;word-spacing:-2.69875px;fill:#1a1a1a;fill-opacity:1;stroke:none;stroke-width:0.264583"
         d="m 39.472602,137.60409 13.422184,40.62572 3.283003,-10.75904 -9.38987,-30.01939 z"
         id="path1215"
         inkscape:connector-curvature="0"
         sodipodi:nodetypes="ccccc" />
      <path
         d="m 90.558101,168.53245 q 0,3.81 -0.6604,6.1976 -0.6096,2.3368 -2.3368,4.1148 -3.048,3.2512 -8.229605,3.2512 -5.1308,0 -8.1788,-3.2512 -1.7272,-1.778 -2.3876,-4.1148 -0.6096,-2.3876 -0.6096,-6.1976 0,-3.7592 0.6096,-6.096 0.6604,-2.3876 2.3876,-4.1656 3.048,-3.2512 8.1788,-3.2512 5.181605,0 8.229605,3.2512 1.7272,1.778 2.3368,4.1656 0.6604,2.3368 0.6604,6.096 z m -6.604,0 q 0,-4.8768 -1.524,-6.4008 -1.168405,-1.1684 -3.098805,-1.1684 -1.8796,0 -3.048,1.1684 -1.524,1.524 -1.524,6.4008 0,4.9276 1.524,6.4516 1.1684,1.1684 3.048,1.1684 1.9304,0 3.098805,-1.1684 1.524,-1.524 1.524,-6.4516 z"
         style="font-style:normal;font-variant:normal;font-weight:bold;font-stretch:normal;font-size:50.8px;line-height:1.25;font-family:DINPro;-inkscape-font-specification:'DINPro Bold';letter-spacing:-3.98462px;word-spacing:-2.69875px;fill:#1a1a1a;fill-opacity:1;stroke:none;stroke-width:0.264583"
         id="path1143"
         inkscape:connector-curvature="0" />
      <path
         id="path873"
         d="m 99.475088,181.79125 h -6.604 v -26.4668 h 6.604 z"
         style="font-style:normal;font-variant:normal;font-weight:bold;font-stretch:normal;font-size:50.8px;line-height:1.25;font-family:DINPro;-inkscape-font-specification:'DINPro Bold';letter-spacing:-3.98462px;word-spacing:-2.69875px;fill:#1a1a1a;fill-opacity:1;stroke:none;stroke-width:0.264583"
         inkscape:connector-curvature="0" />
      <path
         d="m 123.9583,181.79125 h -6.4516 v -2.4892 q -2.4892,2.794 -6.5532,2.794 -4.1148,0 -6.5024,-2.3876 -1.2192,-1.2192 -1.8796,-3.302 -0.6096,-2.1336 -0.7112,-3.6576 -0.1016,-1.5748 -0.1016,-4.2164 0,-2.6416 0.1016,-4.1656 0.1016,-1.5748 0.7112,-3.6576 0.6604,-2.0828 1.8796,-3.302 2.3876,-2.3876 6.4516,-2.3876 4.064,0 6.4516,2.6416 v -12.0396 h 6.604 z m -7.5184,-7.5692 q 0.9144,-1.9304 0.9144,-5.6896 0,-3.7592 -0.9144,-5.6388 -0.8636,-1.9304 -3.6068,-1.9304 -2.7432,0 -3.6068,1.9304 -0.8636,1.8796 -0.8636,5.6388 0,1.8288 0.1524,3.048 0.1524,1.2192 0.5588,2.3368 0.4572,1.1176 1.3716,1.6764 0.9652,0.5588 2.3876,0.5588 2.7432,0 3.6068,-1.9304 z"
         style="font-style:normal;font-variant:normal;font-weight:bold;font-stretch:normal;font-size:50.8px;line-height:1.25;font-family:DINPro;-inkscape-font-specification:'DINPro Bold';letter-spacing:-3.98462px;word-spacing:-2.69875px;fill:#1a1a1a;fill-opacity:1;stroke:none;stroke-width:0.264583"
         id="path1147"
         inkscape:connector-curvature="0" />
      <path
         d="m 187.13763,181.79125 h -6.4516 v -2.286 q -1.3716,1.3716 -2.8448,1.9812 -1.4224,0.5588 -3.6576,0.5588 -4.4196,0 -6.7564,-2.3368 -2.1844,-2.286 -2.1844,-5.9436 0,-3.3528 2.286,-5.4864 2.3368,-2.1844 6.7564,-2.1844 h 6.2484 v -1.3208 q 0,-2.1844 -1.1684,-3.1496 -1.1684,-1.016 -3.7592,-1.016 -1.8796,0 -2.9464,0.508 -1.0668,0.4572 -2.1336,1.6764 l -4.2164,-4.1148 q 1.8796,-2.0828 4.0132,-2.8448 2.1336,-0.8128 5.5372,-0.8128 11.2776,0 11.2776,9.3472 z m -6.604,-9.7536 v -1.4224 h -5.2324 q -1.778,0 -2.7432,0.8128 -0.9652,0.762 -0.9652,2.1844 0,3.048 3.81,3.048 2.8448,0 4.1656,-1.27 0.9652,-0.9144 0.9652,-3.3528 z"
         style="font-style:normal;font-variant:normal;font-weight:bold;font-stretch:normal;font-size:50.8px;line-height:1.25;font-family:DINPro;-inkscape-font-specification:'DINPro Bold';letter-spacing:-3.98462px;word-spacing:-2.69875px;fill:#1a1a1a;fill-opacity:1;stroke:none;stroke-width:0.264583"
         id="path1153"
         inkscape:connector-curvature="0" />
      <path
         d="m 209.92333,157.50885 -4.9784,5.0292 q -1.5748,-1.5748 -3.5052,-1.5748 -1.6764,0 -2.9972,1.27 -1.27,1.27 -1.27,3.6068 v 15.9512 h -6.604 v -26.4668 h 6.4516 v 2.54 q 1.016,-1.2192 2.794,-2.032 1.8288,-0.8128 3.8608,-0.8128 3.7592,0 6.2484,2.4892 z"
         style="font-style:normal;font-variant:normal;font-weight:bold;font-stretch:normal;font-size:50.8px;line-height:1.25;font-family:DINPro;-inkscape-font-specification:'DINPro Bold';letter-spacing:-3.98462px;word-spacing:-2.69875px;fill:#1a1a1a;fill-opacity:1;stroke:none;stroke-width:0.264583"
         id="path1155"
         inkscape:connector-curvature="0" />
      <path
         inkscape:connector-curvature="0"
         id="path1278"
         style="font-style:normal;font-variant:normal;font-weight:bold;font-stretch:normal;font-size:50.8px;line-height:1.25;font-family:DINPro;-inkscape-font-specification:'DINPro Bold';letter-spacing:-3.98462px;word-spacing:-2.69875px;fill:#1a1a1a;fill-opacity:1;stroke:none;stroke-width:0.264583"
         d="m 151.75575,172.68407 q 0,5.1308 -3.81,8.0772 -3.7592,2.8956 -9.6012,2.8956 -4.318,0 -7.4676,-1.0668 -3.1496,-1.1176 -5.7404,-3.7084 l 4.572,-4.572 q 3.048,3.048 8.7376,3.048 6.4008,0 6.4008,-4.4704 0,-1.9812 -1.1176,-3.048 -1.016,-0.9144 -3.2004,-1.27 l -4.3688,-0.6096 q -4.6228,-0.6604 -7.0104,-2.9972 -2.5908,-2.5908 -2.5908,-7.112 0,-4.9276 3.4036,-7.9248 3.4036,-3.048 9.1948,-3.048 7.3152,0 11.684,4.2164 l -4.4704,4.4196 q -2.5908,-2.4892 -7.4168,-2.4892 -2.6924,0 -4.1656,1.3208 -1.4224,1.27 -1.4224,3.2512 0,1.5748 1.0668,2.5908 1.2192,1.1176 3.3528,1.4224 l 4.2672,0.6096 q 4.572,0.6604 6.9088,2.794 2.794,2.6416 2.794,7.6708 z" />
      <path
         style="font-style:normal;font-variant:normal;font-weight:bold;font-stretch:normal;font-size:50.8px;line-height:1.25;font-family:DINPro;-inkscape-font-specification:'DINPro Bold';letter-spacing:-3.98462px;word-spacing:-2.69875px;fill:#1a1a1a;fill-opacity:1;stroke:none;stroke-width:0.264583"
         d="m 99.612677,152.2256 h -6.7564 v -6.17855 h 6.7564 z"
         id="path875"
         inkscape:connector-curvature="0"
         sodipodi:nodetypes="ccccc" />
      <path
         d="m 142.5787,203.16856 h -16.5608 q 0,2.6416 1.524,4.2672 1.5748,1.6256 4.2672,1.6256 2.0828,0 3.3528,-0.5588 1.3208,-0.6096 2.6416,-1.9304 l 4.0132,3.9116 q -2.1844,2.1844 -4.4196,3.2004 -2.2352,0.9652 -5.6388,0.9652 -2.54,0 -4.6228,-0.6096 -2.032,-0.6604 -3.81,-2.1336 -1.778,-1.4732 -2.794,-4.2164 -1.016,-2.7432 -1.016,-6.604 0,-6.35 3.1496,-9.906 3.1496,-3.6068 8.382,-3.6068 5.3848,0 8.4328,3.556 3.0988,3.5052 3.0988,9.0932 z m -6.5024,-4.5212 q -0.0508,-1.5748 -0.6096,-2.8448 -1.2192,-2.7432 -4.4196,-2.7432 -3.2004,0 -4.4196,2.7432 -0.5588,1.27 -0.6096,2.8448 z"
         style="font-style:normal;font-variant:normal;font-weight:bold;font-stretch:normal;font-size:50.8px;line-height:1.25;font-family:DINPro;-inkscape-font-specification:'DINPro Bold';letter-spacing:-3.98462px;word-spacing:-2.69875px;fill:#1a1a1a;fill-opacity:1;stroke:none;stroke-width:0.264583"
         id="path1221"
         inkscape:connector-curvature="0" />
      <path
         d="m 163.98535,211.04256 q -3.4544,3.6068 -8.7376,3.6068 -1.6764,0 -3.2512,-0.3556 -1.5748,-0.4064 -3.2004,-1.3208 -1.5748,-0.9652 -2.7432,-2.4384 -1.1684,-1.524 -1.9304,-3.9116 -0.7112,-2.4384 -0.7112,-5.5372 0,-3.0988 0.7112,-5.4864 0.762,-2.4384 1.9304,-3.9116 1.1684,-1.4732 2.7432,-2.4384 1.6256,-0.9652 3.2004,-1.3208 1.5748,-0.3556 3.2512,-0.3556 5.334,0 8.7376,3.556 l -4.4704,4.4704 q -1.9304,-2.0828 -4.2672,-2.0828 -2.3368,0 -3.7592,1.7272 -1.4732,1.8288 -1.4732,5.842 0,4.064 1.4732,5.8928 1.4224,1.7272 3.7592,1.7272 2.3368,0 4.2672,-2.0828 z"
         style="font-style:normal;font-variant:normal;font-weight:bold;font-stretch:normal;font-size:50.8px;line-height:1.25;font-family:DINPro;-inkscape-font-specification:'DINPro Bold';letter-spacing:-3.98462px;word-spacing:-2.69875px;fill:#1a1a1a;fill-opacity:1;stroke:none;stroke-width:0.264583"
         id="path1223"
         inkscape:connector-curvature="0" />
      <path
         d="m 186.84694,214.03976 h -6.4516 v -2.4384 q -2.5908,2.7432 -6.604,2.7432 -3.9116,0 -6.2484,-2.3368 -2.6924,-2.6924 -2.6924,-7.5184 v -16.9164 h 6.604 v 16.002 q 0,2.4892 1.27,3.6576 1.3208,1.1684 3.0988,1.1684 1.8288,0 3.0988,-1.1684 1.3208,-1.1684 1.3208,-3.6576 v -16.002 h 6.604 z"
         style="font-style:normal;font-variant:normal;font-weight:bold;font-stretch:normal;font-size:50.8px;line-height:1.25;font-family:DINPro;-inkscape-font-specification:'DINPro Bold';letter-spacing:-3.98462px;word-spacing:-2.69875px;fill:#1a1a1a;fill-opacity:1;stroke:none;stroke-width:0.264583"
         id="path1225"
         inkscape:connector-curvature="0" />
      <path
         d="m 209.59662,189.75736 -4.97841,5.0292 q -1.5748,-1.5748 -3.5052,-1.5748 -1.6764,0 -2.9972,1.27 -1.27,1.27 -1.27,3.6068 v 15.9512 h -6.604 v -26.4668 h 6.4516 v 2.54 q 1.016,-1.2192 2.794,-2.032 1.8288,-0.8128 3.8608,-0.8128 3.75921,0 6.24841,2.4892 z"
         style="font-style:normal;font-variant:normal;font-weight:bold;font-stretch:normal;font-size:50.8px;line-height:1.25;font-family:DINPro;-inkscape-font-specification:'DINPro Bold';letter-spacing:-3.98462px;word-spacing:-2.69875px;fill:#1a1a1a;fill-opacity:1;stroke:none;stroke-width:0.264583"
         id="path1227"
         inkscape:connector-curvature="0" />
      <path
         inkscape:connector-curvature="0"
         id="path1345"
         d="m 217.45136,214.03974 h -6.68395 v -26.4668 h 6.68395 z"
         style="font-style:normal;font-variant:normal;font-weight:bold;font-stretch:normal;font-size:50.8px;line-height:1.25;font-family:DINPro;-inkscape-font-specification:'DINPro Bold';letter-spacing:-3.98462px;word-spacing:-2.69875px;fill:#1a1a1a;fill-opacity:1;stroke:none;stroke-width:0.26618" />
      <path
         sodipodi:nodetypes="ccccc"
         inkscape:connector-curvature="0"
         id="path1229"
         d="m 217.50278,184.8699 h -6.8382 v -6.2447 h 6.8382 z"
         style="font-style:normal;font-variant:normal;font-weight:bold;font-stretch:normal;font-size:50.8px;line-height:1.25;font-family:DINPro;-inkscape-font-specification:'DINPro Bold';letter-spacing:-3.98462px;word-spacing:-2.69875px;fill:#1a1a1a;fill-opacity:1;stroke:none;stroke-width:0.26618" />
      <path
         sodipodi:nodetypes="cscsccccccccccsscc"
         d="m 232.92488,214.03976 h -3.65047 c -2.53648,0 -4.4731,-0.74507 -5.80989,-2.2352 -1.30252,-1.49013 -1.95377,-3.26813 -1.95377,-5.334 v -13.1064 h -2.82783 v -5.78312 h 2.82783 v -7.06928 h 6.68395 v 7.06928 h 4.73018 l 0.74533,5.78312 h -5.47551 v 12.7 c 0,1.59173 0.77122,2.3876 2.31367,2.3876 h 2.41651 z"
         style="font-style:normal;font-variant:normal;font-weight:bold;font-stretch:normal;font-size:50.8px;line-height:1.25;font-family:DINPro;-inkscape-font-specification:'DINPro Bold';letter-spacing:-3.98462px;word-spacing:-2.69875px;fill:#1a1a1a;fill-opacity:1;stroke:none;stroke-width:0.26618"
         id="path1231"
         inkscape:connector-curvature="0" />
      <path
         sodipodi:nodetypes="ccccscccccccccscccccc"
         inkscape:connector-curvature="0"
         id="path1366"
         d="m 231.38897,187.58983 9.1518,24.57008 -1.13129,3.25148 c -0.34276,0.94827 -0.75394,1.57467 -1.2338,1.87947 -0.44561,0.33867 -1.14854,0.50798 -2.10828,0.50798 h -3.21398 c 0,0 -71.08437,0.0341 -106.60358,0.0341 h -1.07115 -30.806908 l 0.15259,5.86527 h 24.818458 1.07114 l 112.43945,0.0468 c 0,0 2.89435,-0.002 4.294,-0.002 2.46792,0 4.38738,-0.67725 5.75845,-2.03192 0.75409,-0.74507 1.42256,-1.87993 2.00527,-3.40393 l 11.46513,-30.71699 -4.58089,-7.02467 -7.80998,23.36528 -5.55291,-16.34061 z"
         style="font-style:normal;font-variant:normal;font-weight:bold;font-stretch:normal;font-size:50.8px;line-height:1.25;font-family:DINPro;-inkscape-font-specification:'DINPro Bold';letter-spacing:-3.98462px;word-spacing:-2.69875px;fill:#1a1a1a;fill-opacity:1;stroke:none;stroke-width:0.26618" />
      <path
         d="m 119.31268,206.01333 q 0,4.2164 -3.1496,6.4516 -3.1496,2.1844 -8.0772,2.1844 -3.6576,0 -6.35,-0.762 -2.641599,-0.762 -4.927599,-3.048 l 4.317999,-4.318 q 2.4892,2.4892 7.0612,2.4892 1.9304,0 3.302,-0.6604 1.3716,-0.7112 1.3716,-2.0828 0,-2.1844 -2.794,-2.4384 l -4.1656,-0.4064 q -7.721599,-0.762 -7.721599,-7.4168 0,-3.9624 2.946399,-6.1976 2.9972,-2.2352 7.2644,-2.2352 6.8072,0 10.1092,3.0988 l -4.064,4.1148 q -1.9812,-1.778 -6.1468,-1.778 -1.8796,0 -2.8448,0.762 -0.9144,0.7112 -0.9144,1.778 0,2.032 2.7432,2.286 l 4.1656,0.4064 q 3.8608,0.3556 5.842,2.3876 2.032,1.9812 2.032,5.3848 z"
         style="font-style:normal;font-variant:normal;font-weight:bold;font-stretch:normal;font-size:50.8px;line-height:1.25;font-family:DINPro;-inkscape-font-specification:'DINPro Bold';letter-spacing:-3.98462px;word-spacing:-2.69875px;fill:#1a1a1a;fill-opacity:1;stroke:none;stroke-width:0.264583"
         id="path868"
         inkscape:connector-curvature="0" />
      <path
         inkscape:connector-curvature="0"
         id="path879"
         d="M 86.67763,208.87597 A 11.398242,11.398242 0 0 0 75.279358,220.27424 11.398242,11.398242 0 0 0 86.67763,231.67251 11.398242,11.398242 0 0 0 98.075891,220.27424 11.398242,11.398242 0 0 0 86.67763,208.87597 Z m 0,5.19503 a 6.2032772,6.2032772 0 0 1 6.203241,6.20324 6.2032772,6.2032772 0 0 1 -6.203241,6.20324 6.2032772,6.2032772 0 0 1 -6.203242,-6.20324 6.2032772,6.2032772 0 0 1 6.203242,-6.20324 z"
         style="opacity:1;fill:#1a1a1a;fill-opacity:1;stroke:none;stroke-width:0.185226;stroke-linecap:square;stroke-linejoin:miter;stroke-miterlimit:4;stroke-dasharray:none;stroke-opacity:1;paint-order:normal" />
      <path
         style="font-style:normal;font-variant:normal;font-weight:bold;font-stretch:normal;font-size:50.8px;line-height:1.25;font-family:DINPro;-inkscape-font-specification:'DINPro Bold';letter-spacing:-3.98462px;word-spacing:-2.69875px;fill:#1a1a1a;fill-opacity:1;stroke:none;stroke-width:0.308789"
         d="m 69.476525,210.52877 c 0,0 0.647776,2.46645 1.060076,2.94387 0.382854,0.53048 0.986812,0.79568 1.81142,0.79568 4.993454,0.0534 6.703732,0.0534 6.703732,0.0534 l -0.131108,9.18694 c 0,0 -1.47788,0.007 -6.120106,0.0703 -2.120412,0 -3.769592,-1.0608 -4.947602,-3.18266 -0.647906,-1.16703 -1.222246,-2.94458 -1.722904,-5.33168 z"
         id="path958"
         inkscape:connector-curvature="0"
         sodipodi:nodetypes="ccccccscc" />
      <path
         inkscape:connector-curvature="0"
         id="path4919"
         d="m 59.54754,180.80841 -5.519532,0.61133 4.332032,8.78711 1.251953,0.0801 -4.607422,6.91797 8.109375,0.5625 -4.636719,6.85351 8.308594,0.5625 -3.626953,5.55469 4.088593,8.23036 1.960235,-7.15224 0.53125,-2.0957 5.996094,-9.00781 -8.09961,-0.55274 4.492188,-6.65625 -5.451172,-0.59961 -2.675782,-0.21875 4.398438,-6.89648 -6.800781,-0.40039 z"
         style="color:#000000;font-style:normal;font-variant:normal;font-weight:normal;font-stretch:normal;font-size:medium;line-height:normal;font-family:sans-serif;font-variant-ligatures:normal;font-variant-position:normal;font-variant-caps:normal;font-variant-numeric:normal;font-variant-alternates:normal;font-feature-settings:normal;text-indent:0;text-align:start;text-decoration:none;text-decoration-line:none;text-decoration-style:solid;text-decoration-color:#000000;letter-spacing:normal;word-spacing:normal;text-transform:none;writing-mode:lr-tb;direction:ltr;text-orientation:mixed;dominant-baseline:auto;baseline-shift:baseline;text-anchor:start;white-space:normal;shape-padding:0;clip-rule:nonzero;display:inline;overflow:visible;visibility:visible;opacity:1;isolation:auto;mix-blend-mode:normal;color-interpolation:sRGB;color-interpolation-filters:linearRGB;solid-color:#000000;solid-opacity:1;vector-effect:none;fill:#1a1a1a;fill-opacity:1;fill-rule:nonzero;stroke:none;stroke-width:3.205;stroke-linecap:square;stroke-linejoin:miter;stroke-miterlimit:4;stroke-dasharray:none;stroke-dashoffset:0;stroke-opacity:1;color-rendering:auto;image-rendering:auto;shape-rendering:auto;text-rendering:auto;enable-background:accumulate"
         sodipodi:nodetypes="cccccccccccccccccccc" />
      <rect
         style="fill:#1a1a1a;fill-opacity:1;stroke-width:0.259095"
         id="rect472"
         width="166.96609"
         height="5.5660553"
         x="66.319267"
         y="137.29289" />
      <path
         inkscape:connector-curvature="0"
         id="path4919-0"
         d="m 248.25613,150.76142 -5.51953,0.61133 4.33203,8.78711 1.25195,0.0801 -4.60742,6.91797 8.10938,0.5625 -4.63672,6.85351 7.09746,0.0662 -2.41582,6.051 4.08859,8.23036 2.52543,-6.96135 3.19574,-7.09696 2.76641,-4.19744 -7.9785,-0.13279 4.37108,-7.0762 -5.45117,-0.59961 -2.67579,-0.21875 4.39844,-6.89648 -6.80078,-0.40039 z"
         style="color:#000000;font-style:normal;font-variant:normal;font-weight:normal;font-stretch:normal;font-size:medium;line-height:normal;font-family:sans-serif;font-variant-ligatures:normal;font-variant-position:normal;font-variant-caps:normal;font-variant-numeric:normal;font-variant-alternates:normal;font-feature-settings:normal;text-indent:0;text-align:start;text-decoration:none;text-decoration-line:none;text-decoration-style:solid;text-decoration-color:#000000;letter-spacing:normal;word-spacing:normal;text-transform:none;writing-mode:lr-tb;direction:ltr;text-orientation:mixed;dominant-baseline:auto;baseline-shift:baseline;text-anchor:start;white-space:normal;shape-padding:0;clip-rule:nonzero;display:inline;overflow:visible;visibility:visible;isolation:auto;mix-blend-mode:normal;color-interpolation:sRGB;color-interpolation-filters:linearRGB;solid-color:#000000;solid-opacity:1;vector-effect:none;fill:#1a1a1a;fill-opacity:1;fill-rule:nonzero;stroke:none;stroke-width:3.205;stroke-linecap:square;stroke-linejoin:miter;stroke-miterlimit:4;stroke-dasharray:none;stroke-dashoffset:0;stroke-opacity:1;color-rendering:auto;image-rendering:auto;shape-rendering:auto;text-rendering:auto;enable-background:accumulate"
         sodipodi:nodetypes="cccccccccccccccccccc" />
      <path
         inkscape:connector-curvature="0"
         id="path879-3"
         d="m 240.57286,133.82318 a 11.398242,11.398242 0 0 0 -11.39827,11.39827 11.398242,11.398242 0 0 0 11.39827,11.39827 11.398242,11.398242 0 0 0 11.39826,-11.39827 11.398242,11.398242 0 0 0 -11.39826,-11.39827 z m 0,5.19503 a 6.2032772,6.2032772 0 0 1 6.20324,6.20324 6.2032772,6.2032772 0 0 1 -6.20324,6.20324 6.2032772,6.2032772 0 0 1 -6.20324,-6.20324 6.2032772,6.2032772 0 0 1 6.20324,-6.20324 z"
         style="fill:#1a1a1a;fill-opacity:1;stroke:none;stroke-width:0.185226;stroke-linecap:square;stroke-linejoin:miter;stroke-miterlimit:4;stroke-dasharray:none;stroke-opacity:1;paint-order:normal" />
    </g>
  </g>
</svg>
